<svg width="82" height="50" viewBox="0 0 82 50" fill="none" xmlns="http://www.w3.org/2000/svg">
<path d="M18.625 2.03125H23.25V33.0625C23.25 37.8333 22.875 41.1562 22.125 43.0312C21.3958 44.8854 20.1667 46.375 18.4375 47.5C16.7083 48.6042 14.6146 49.1562 12.1562 49.1562C10.3021 49.1562 8.46875 48.7917 6.65625 48.0625C4.86458 47.3542 2.875 46.0938 0.6875 44.2812L3.125 40.625C5.52083 42.3125 7.51042 43.5 9.09375 44.1875C10.1354 44.6458 11.1562 44.875 12.1562 44.875C13.4688 44.875 14.6562 44.4792 15.7188 43.6875C16.8021 42.8958 17.5521 41.8438 17.9688 40.5312C18.4062 39.2188 18.625 36.6771 18.625 32.9062V2.03125ZM78.8125 9.75L75.25 13.125C72.6875 10.6042 69.875 8.69792 66.8125 7.40625C63.7708 6.09375 60.8021 5.4375 57.9062 5.4375C54.3021 5.4375 50.8646 6.32292 47.5938 8.09375C44.3438 9.86458 41.8229 12.2708 40.0312 15.3125C38.2396 18.3333 37.3438 21.5312 37.3438 24.9062C37.3438 28.3646 38.2708 31.6562 40.125 34.7812C41.9792 37.8854 44.5417 40.3333 47.8125 42.125C51.0833 43.8958 54.6667 44.7812 58.5625 44.7812C63.2917 44.7812 67.2917 43.4479 70.5625 40.7812C73.8333 38.1146 75.7708 34.6562 76.375 30.4062H61.7188V25.9688H81.5312C81.4896 33.0729 79.375 38.7188 75.1875 42.9062C71.0208 47.0729 65.4375 49.1562 58.4375 49.1562C49.9375 49.1562 43.2083 46.2604 38.25 40.4688C34.4375 36.0104 32.5312 30.8542 32.5312 25C32.5312 20.6458 33.625 16.5938 35.8125 12.8438C38 9.09375 41 6.16667 44.8125 4.0625C48.625 1.9375 52.9375 0.875 57.75 0.875C61.6458 0.875 65.3125 1.58333 68.75 3C72.1875 4.39583 75.5417 6.64583 78.8125 9.75Z" fill="black"/>
</svg>
